<svg width="1376" height="648" viewBox="0 0 1376 648" fill="none" xmlns="http://www.w3.org/2000/svg">
<g filter="url(#filter0_d_48_509)">
<rect x="40" y="32" width="1296" height="568" rx="4" fill="white"/>
<path d="M109 441H96.83L102.42 435.41L101 434L93 442L101 450L102.41 448.59L96.83 443H109V441Z" fill="#9093A6"/>
<path d="M96.7 88.958V129.5H92.64V88.958H96.7ZM106.938 113.666C106.938 110.379 107.595 107.518 108.91 105.082C110.225 102.607 112.042 100.713 114.362 99.398C116.682 98.0447 119.331 97.368 122.308 97.368C126.213 97.368 129.423 98.3347 131.936 100.268C134.488 102.201 136.131 104.831 136.866 108.156H132.516C131.975 105.875 130.795 104.096 128.978 102.82C127.199 101.505 124.976 100.848 122.308 100.848C120.181 100.848 118.267 101.331 116.566 102.298C114.865 103.265 113.511 104.715 112.506 106.648C111.539 108.543 111.056 110.882 111.056 113.666C111.056 116.45 111.539 118.809 112.506 120.742C113.511 122.675 114.865 124.125 116.566 125.092C118.267 126.059 120.181 126.542 122.308 126.542C124.976 126.542 127.199 125.904 128.978 124.628C130.795 123.313 131.975 121.496 132.516 119.176H136.866C136.131 122.424 134.488 125.034 131.936 127.006C129.384 128.978 126.175 129.964 122.308 129.964C119.331 129.964 116.682 129.307 114.362 127.992C112.042 126.639 110.225 124.744 108.91 122.308C107.595 119.833 106.938 116.953 106.938 113.666ZM161.126 129.964C158.149 129.964 155.462 129.307 153.064 127.992C150.706 126.639 148.83 124.744 147.438 122.308C146.085 119.833 145.408 116.953 145.408 113.666C145.408 110.379 146.104 107.518 147.496 105.082C148.888 102.607 150.783 100.713 153.18 99.398C155.578 98.0447 158.265 97.368 161.242 97.368C164.22 97.368 166.907 98.0447 169.304 99.398C171.74 100.713 173.635 102.607 174.988 105.082C176.38 107.518 177.076 110.379 177.076 113.666C177.076 116.914 176.38 119.775 174.988 122.25C173.596 124.725 171.682 126.639 169.246 127.992C166.81 129.307 164.104 129.964 161.126 129.964ZM161.126 126.426C163.214 126.426 165.148 125.962 166.926 125.034C168.705 124.067 170.136 122.637 171.218 120.742C172.34 118.809 172.9 116.45 172.9 113.666C172.9 110.882 172.359 108.543 171.276 106.648C170.194 104.715 168.763 103.284 166.984 102.356C165.206 101.389 163.272 100.906 161.184 100.906C159.096 100.906 157.163 101.389 155.384 102.356C153.606 103.284 152.175 104.715 151.092 106.648C150.048 108.543 149.526 110.882 149.526 113.666C149.526 116.45 150.048 118.809 151.092 120.742C152.175 122.637 153.586 124.067 155.326 125.034C157.105 125.962 159.038 126.426 161.126 126.426ZM202.225 97.252C206.014 97.252 209.108 98.4313 211.505 100.79C213.902 103.11 215.101 106.493 215.101 110.94V129.5H211.099V111.404C211.099 107.963 210.229 105.333 208.489 103.516C206.788 101.699 204.448 100.79 201.471 100.79C198.416 100.79 195.98 101.757 194.163 103.69C192.346 105.623 191.437 108.465 191.437 112.216V129.5H187.377V97.832H191.437V103.226C192.442 101.293 193.892 99.8233 195.787 98.818C197.682 97.774 199.828 97.252 202.225 97.252ZM237.884 129.964C234.25 129.964 231.272 129.133 228.952 127.47C226.671 125.769 225.395 123.468 225.124 120.568H229.3C229.494 122.347 230.325 123.797 231.794 124.918C233.302 126.001 235.313 126.542 237.826 126.542C240.03 126.542 241.751 126.02 242.988 124.976C244.264 123.932 244.902 122.637 244.902 121.09C244.902 120.007 244.554 119.118 243.858 118.422C243.162 117.726 242.273 117.185 241.19 116.798C240.146 116.373 238.716 115.928 236.898 115.464C234.54 114.845 232.626 114.227 231.156 113.608C229.687 112.989 228.43 112.081 227.386 110.882C226.381 109.645 225.878 108.001 225.878 105.952C225.878 104.405 226.342 102.975 227.27 101.66C228.198 100.345 229.513 99.3013 231.214 98.528C232.916 97.7547 234.849 97.368 237.014 97.368C240.417 97.368 243.162 98.238 245.25 99.978C247.338 101.679 248.46 104.038 248.614 107.054H244.554C244.438 105.198 243.704 103.709 242.35 102.588C241.036 101.428 239.218 100.848 236.898 100.848C234.849 100.848 233.186 101.331 231.91 102.298C230.634 103.265 229.996 104.463 229.996 105.894C229.996 107.131 230.364 108.156 231.098 108.968C231.872 109.741 232.819 110.36 233.94 110.824C235.062 111.249 236.57 111.733 238.464 112.274C240.746 112.893 242.563 113.492 243.916 114.072C245.27 114.652 246.43 115.503 247.396 116.624C248.363 117.745 248.866 119.234 248.904 121.09C248.904 122.791 248.44 124.319 247.512 125.672C246.584 126.987 245.289 128.031 243.626 128.804C241.964 129.577 240.05 129.964 237.884 129.964Z" fill="#D4D7E6"/>
<g clip-path="url(#clip0_48_509)">
<path d="M420.956 231.236C415.878 230.149 411.918 227.731 408.941 224.182L405.482 220.057C402.945 217.028 398.433 216.629 395.404 219.166C395.081 219.436 394.783 219.734 394.513 220.057L391.054 224.182C388.081 227.727 384.123 230.148 379.039 231.236L376.938 228.488C377.191 227.99 377.666 227.182 377.666 225.885C377.667 224.323 377.031 223.225 376 222.25V219.599C377.041 218.617 377.667 217.516 377.667 215.962C377.667 214.408 377.031 213.302 376 212.326V209.674C377.041 208.693 377.667 207.592 377.667 206.038C377.667 204.484 377.031 203.377 376 202.402V199.75C377.041 198.769 377.667 197.667 377.667 196.114C377.667 194.843 377.212 194.051 376.939 193.511L379.043 190.764C384.122 191.852 388.081 194.269 391.058 197.818L394.517 201.943C397.054 204.972 401.566 205.371 404.595 202.834C404.918 202.564 405.216 202.266 405.486 201.943L408.945 197.818C411.918 194.273 415.876 191.852 420.96 190.764L423.062 193.512C422.812 194.004 422.333 194.817 422.333 196.115C422.333 197.677 422.967 198.775 424 199.751V202.402C422.959 203.384 422.333 204.485 422.333 206.039C422.333 207.593 422.968 208.698 423.999 209.674V212.326C422.959 213.307 422.332 214.408 422.332 215.962C422.332 217.516 422.968 218.623 423.999 219.598V222.25C422.959 223.231 422.332 224.332 422.332 225.886C422.332 227.155 422.784 227.944 423.061 228.488L420.956 231.236ZM400 215.998C402.559 215.995 404.989 217.128 406.631 219.091L410.091 223.216C412.744 226.37 416.337 228.593 420.343 229.562L421.306 228.304C420.991 227.535 420.829 226.712 420.829 225.882C420.824 224.299 421.421 222.773 422.499 221.615V220.231C420.276 217.818 420.276 214.104 422.499 211.691V210.308C420.276 207.895 420.276 204.181 422.499 201.768V200.385C421.421 199.225 420.825 197.698 420.832 196.115C420.832 195.284 420.994 194.461 421.309 193.692L420.343 192.438C416.335 193.406 412.742 195.631 410.088 198.786L406.629 202.91C403.558 206.573 398.099 207.052 394.437 203.982C394.049 203.657 393.691 203.298 393.366 202.91L389.907 198.786C387.254 195.632 383.662 193.408 379.656 192.438L378.691 193.692C379.005 194.461 379.167 195.284 379.167 196.115C379.174 197.698 378.578 199.225 377.5 200.385V201.769C378.578 202.928 379.174 204.455 379.167 206.039C379.174 207.622 378.578 209.149 377.5 210.308V211.692C378.578 212.852 379.174 214.379 379.167 215.962C379.174 217.545 378.578 219.072 377.5 220.231V221.615C378.578 222.775 379.174 224.302 379.167 225.885C379.167 226.716 379.006 227.539 378.691 228.308L379.656 229.562C383.664 228.593 387.257 226.369 389.911 223.214L393.371 219.09C395.013 217.128 397.441 215.995 400 215.998Z" fill="#B79C10"/>
<path d="M418.837 226.951C416.053 225.909 413.584 224.165 411.671 221.889L408.211 217.764C404.408 213.229 397.649 212.635 393.114 216.437C392.634 216.84 392.19 217.284 391.787 217.764L388.328 221.889C386.415 224.165 383.946 225.909 381.162 226.951C381.437 224.817 380.88 222.658 379.605 220.923C380.663 219.485 381.232 217.746 381.229 215.961C381.232 214.176 380.663 212.438 379.605 211C380.663 209.562 381.232 207.823 381.229 206.038C381.232 204.253 380.663 202.514 379.605 201.076C380.88 199.341 381.437 197.183 381.162 195.048C383.946 196.09 386.415 197.834 388.328 200.11L391.787 204.235C395.59 208.77 402.349 209.364 406.884 205.562C407.364 205.159 407.808 204.715 408.211 204.235L411.67 200.11C413.583 197.834 416.052 196.09 418.836 195.048C418.561 197.183 419.119 199.341 420.393 201.076C418.228 204.029 418.228 208.046 420.393 210.999C418.228 213.953 418.228 217.969 420.393 220.922C419.119 222.658 418.562 224.816 418.837 226.951Z" fill="#FFE145"/>
<path d="M403.441 210.995C404.536 210.488 405.506 209.744 406.281 208.818L409.542 204.929L408.395 203.969L405.134 207.858C402.74 210.694 398.5 211.053 395.665 208.659C395.376 208.415 395.108 208.147 394.864 207.858L391.603 203.969L390.454 204.932L393.718 208.818C394.494 209.745 395.465 210.488 396.562 210.995C395.465 211.502 394.494 212.246 393.718 213.172L390.457 217.062L391.606 218.025L394.868 214.136C397.262 211.3 401.501 210.941 404.337 213.335C404.626 213.579 404.894 213.847 405.138 214.136L408.399 218.025L409.549 217.062L406.281 213.172C405.506 212.246 404.536 211.503 403.441 210.995Z" fill="#B79C10"/>
</g>
<path d="M496 187L476.559 225.097C481.638 231.803 488.7 235 496 235C503.224 235 510.317 231.862 515.441 225.097L496 187ZM511.255 220.195C506.172 228.619 495.222 231.329 486.798 226.246C484.319 224.751 482.242 222.674 480.746 220.195L496 190.303L511.255 220.195ZM496 233.499C489.108 233.506 482.593 230.35 478.326 224.937L479.954 221.747C485.895 230.607 497.893 232.975 506.754 227.035C508.844 225.633 510.64 223.837 512.042 221.747L513.67 224.937C509.404 230.349 502.891 233.505 496 233.499Z" fill="#B79C10"/>
<path d="M500.222 203.119C500.17 204.644 498.892 205.838 497.367 205.786C495.841 205.734 494.647 204.456 494.699 202.931C494.751 201.406 496.029 200.211 497.554 200.263C498.071 200.281 498.573 200.443 499.002 200.732L496 194.844L483.127 220.068C488.138 227.177 497.963 228.878 505.072 223.867C506.547 222.828 507.832 221.543 508.872 220.068L500.222 203.119ZM490.47 215.816C488.943 215.816 487.705 214.578 487.705 213.051C487.705 211.524 488.943 210.286 490.47 210.286C491.997 210.286 493.235 211.524 493.235 213.051C493.235 214.578 491.997 215.816 490.47 215.816ZM501.144 222.428C499.617 222.428 498.379 221.19 498.379 219.663C498.379 218.136 499.617 216.898 501.144 216.898C502.67 216.898 503.908 218.134 503.909 219.66C503.911 221.187 502.674 222.426 501.147 222.428C501.146 222.428 501.145 222.428 501.144 222.428Z" fill="#FFE145"/>
<path d="M501.144 223.178C499.203 223.178 497.629 221.604 497.629 219.663C497.629 217.721 499.203 216.147 501.144 216.147C503.086 216.147 504.66 217.721 504.66 219.663C504.658 221.603 503.085 223.176 501.144 223.178ZM501.144 217.648C500.032 217.648 499.13 218.55 499.13 219.663C499.13 220.775 500.032 221.677 501.144 221.677C502.257 221.677 503.159 220.775 503.159 219.663C503.161 218.549 502.26 217.645 501.146 217.643C501.146 217.643 501.145 217.643 501.144 217.643V217.648Z" fill="#B79C10"/>
<path d="M490.47 216.566C488.528 216.566 486.954 214.993 486.954 213.051C486.954 211.109 488.528 209.535 490.47 209.535C492.412 209.535 493.986 211.109 493.986 213.051C493.983 214.992 492.411 216.564 490.47 216.566ZM490.47 211.037C489.357 211.037 488.456 211.938 488.456 213.051C488.456 214.163 489.357 215.065 490.47 215.065C491.583 215.065 492.484 214.163 492.484 213.051C492.483 211.939 491.582 211.038 490.47 211.037V211.037Z" fill="#B79C10"/>
<path d="M497.46 206.541C495.518 206.542 493.943 204.969 493.942 203.028C493.94 201.086 495.513 199.511 497.454 199.51C499.396 199.508 500.971 201.081 500.973 203.022C500.973 203.023 500.973 203.024 500.973 203.025C500.971 204.965 499.399 206.537 497.46 206.541ZM497.46 201.011C496.347 201.009 495.444 201.91 495.443 203.022C495.441 204.135 496.342 205.038 497.454 205.039C498.567 205.041 499.47 204.14 499.471 203.028C499.471 203.027 499.471 203.026 499.471 203.025C499.47 201.914 498.571 201.013 497.46 201.011Z" fill="#B79C10"/>
<path d="M784 198.896C782.906 197.001 781.891 194.67 781.891 192.672C781.891 191.507 782.835 190.562 784 190.562C785.165 190.562 786.109 191.507 786.109 192.672C786.109 194.659 785.085 197.001 784 198.896Z" fill="#FFE145"/>
<path d="M772.792 211.99C771.627 211.99 770.683 211.046 770.683 209.881C770.683 208.716 771.627 207.771 772.792 207.771C774.78 207.771 777.122 208.797 779.016 209.884C777.122 210.974 774.791 211.99 772.792 211.99Z" fill="#FFE145"/>
<path d="M795.208 211.99C793.208 211.99 790.875 210.972 788.978 209.881C790.874 208.789 793.208 207.771 795.208 207.771C796.373 207.771 797.317 208.716 797.317 209.881C797.317 211.046 796.373 211.99 795.208 211.99Z" fill="#FFE145"/>
<path d="M772.792 225.913C771.627 225.913 770.683 224.968 770.683 223.803C770.683 222.639 771.627 221.694 772.792 221.694C774.78 221.694 777.122 222.72 779.016 223.807C777.122 224.897 774.791 225.913 772.792 225.913Z" fill="#FFE145"/>
<path d="M795.208 225.913C793.208 225.913 790.875 224.895 788.978 223.803C790.874 222.712 793.208 221.694 795.208 221.694C796.373 221.694 797.317 222.639 797.317 223.803C797.317 224.968 796.373 225.913 795.208 225.913Z" fill="#FFE145"/>
<path d="M795.208 218.132C792.88 218.132 790.201 218.993 787.245 220.693C786.243 221.268 785.388 221.84 784.75 222.295V211.389C785.388 211.844 786.244 212.42 787.245 212.991C790.2 214.691 792.879 215.552 795.208 215.552C798.34 215.552 800.88 213.013 800.88 209.881C800.88 206.748 798.34 204.209 795.208 204.209C792.88 204.209 790.201 205.07 787.245 206.77C786.244 207.344 785.388 207.917 784.75 208.375V204.144C785.619 203.032 786.408 201.859 787.112 200.635C788.811 197.679 789.673 195.001 789.673 192.672C789.673 189.539 787.133 187 784.001 187C780.869 187 778.329 189.539 778.329 192.672C778.329 195 779.191 197.679 780.89 200.635C781.593 201.859 782.382 203.032 783.25 204.144V208.375C782.612 207.92 781.756 207.344 780.755 206.773C777.8 205.073 775.121 204.212 772.792 204.212C769.66 204.212 767.12 206.751 767.12 209.883C767.12 213.016 769.66 215.555 772.792 215.555C775.12 215.555 777.799 214.694 780.755 212.994C781.757 212.418 782.612 211.847 783.25 211.392V222.295C782.612 221.84 781.756 221.264 780.755 220.693C777.8 218.993 775.121 218.132 772.792 218.132C769.66 218.132 767.12 220.671 767.12 223.803C767.12 226.936 769.66 229.475 772.792 229.475C775.12 229.475 777.799 228.614 780.755 226.914C781.757 226.338 782.612 225.767 783.25 225.312V235H784.75V225.312C785.388 225.767 786.244 226.343 787.245 226.914C790.2 228.614 792.879 229.475 795.208 229.475C798.34 229.475 800.88 226.936 800.88 223.803C800.88 220.671 798.34 218.132 795.208 218.132ZM795.208 205.708C797.512 205.707 799.381 207.573 799.382 209.877C799.383 212.181 797.517 214.05 795.213 214.052C795.211 214.052 795.209 214.052 795.208 214.052C791.311 214.052 786.945 211.145 785.229 209.88C786.945 208.615 791.313 205.708 795.208 205.708ZM779.828 192.672C779.828 190.368 781.696 188.5 784 188.5C786.304 188.5 788.172 190.368 788.172 192.672C788.172 196.569 785.266 200.936 783.999 202.652C782.734 200.938 779.828 196.576 779.828 192.672ZM772.797 214.052C770.493 214.052 768.625 212.184 768.625 209.88C768.625 207.576 770.493 205.708 772.797 205.708C776.694 205.708 781.061 208.614 782.777 209.881C781.058 211.146 776.696 214.052 772.792 214.052L772.797 214.052ZM772.797 227.975C770.493 227.975 768.625 226.108 768.625 223.803C768.625 221.499 770.493 219.632 772.797 219.632C776.694 219.632 781.061 222.538 782.777 223.804C781.058 225.069 776.696 227.975 772.792 227.975H772.797ZM795.213 227.975C791.315 227.975 786.949 225.069 785.234 223.803C786.949 222.538 791.316 219.632 795.213 219.632C797.517 219.632 799.384 221.499 799.384 223.803C799.384 226.108 797.517 227.975 795.213 227.975Z" fill="#B79C10"/>
<path d="M231.8 303.2C231.8 303.9 231.8 304.5 231.8 305.2C231.8 305.3 231.7 305.3 231.7 305.4C231.5 307.4 230.8 309.3 229.7 311C228.9 312.3 227.8 313.3 226.8 314.4C221.8 319.4 216.7 324.3 211.7 329.3C211.3 329.7 210.8 330.1 210.3 330.5C210.1 330.5 210 330.5 209.8 330.5C209.6 330.3 209.3 330.2 209.1 330C203.4 324.4 197.7 318.8 192.1 313.2C190.4 311.5 189.2 309.4 188.7 307.1C188.5 306.4 188.5 305.8 188.4 305.1C188.4 304.4 188.4 303.8 188.4 303.1C188.4 302.8 188.5 302.5 188.5 302.2C189.4 296.3 194.6 291.6 200.5 291.3C203.1 291.2 205.5 291.7 207.8 292.9C207.943 293.043 210.431 293 212.1 293C212.2 293 212.3 292.9 212.4 292.8C215.2 291.3 218.3 290.7 221.4 291.4C226.6 292.6 230.1 295.7 231.5 301C231.6 301.7 231.7 302.5 231.8 303.2Z" fill="#FFE145"/>
<path fill-rule="evenodd" clip-rule="evenodd" d="M207.9 304.9L207 309.1H209.9L209.1 305L207.9 304.9Z" fill="white"/>
<path fill-rule="evenodd" clip-rule="evenodd" d="M209.6 292.7C209.7 292.6 209.8 292.6 209.9 292.5C211.7 291.5 213.6 290.9 215.7 290.8C219 290.6 222 291.6 224.6 293.7C227.3 295.9 228.9 298.8 229.4 302.2C229.9 306.1 228.8 309.5 226.3 312.5C225.1 313.9 223.7 315.2 222.3 316.6C217.7 321.2 213.2 325.7 208.6 330.3C207.9 331 207.5 331 206.8 330.3C201.1 324.6 195.5 319 189.8 313.3C187.5 311 186.2 308.2 186 304.9C185.7 301.4 186.8 298.3 189 295.6C191.3 292.7 194.4 291.2 198.1 290.9C200.8 290.6 203.3 291.3 205.6 292.6C205.7 292.6 205.8 292.7 205.9 292.8C206.105 291.57 206.3 290.242 206.3 289C206.3 288.8 206.2 288.5 206.1 288.3C205.7 287.8 205.6 287.4 205.9 286.8C206.2 286.2 206.6 285.6 207 285C207.124 284.814 207.2 284.9 207.2 284.3C207.2 284.1 207.2 283.9 207.2 283.6C207.2 283.3 207.5 283 207.8 283C208.1 283 208.4 283.2 208.4 283.6C208.4 284.1 208.4 284.6 208.4 284.1C208.4 284.3 208.5 284.8 208.6 285C209.045 285.741 209.322 286.284 209.8 287C210 287.4 210 287.7 209.7 288C209.3 288.4 209.2 288.8 209.3 289.3C209.357 290.44 209.6 291.557 209.6 292.7ZM200.3 317.8C199.6 317.8 198.9 317.8 198.2 317.8C197.9 317.8 197.7 317.8 197.5 317.5C197.3 317.2 197.5 317 197.6 316.7C197.9 316.3 198.1 316 198.4 315.6C199.6 313.7 200.8 311.8 202 309.9C202.2 309.6 202.2 309.5 201.8 309.5C201.4 309.5 201.2 309.2 201.2 308.9C201.2 308.6 201.4 308.3 201.8 308.3C202.1 308.3 202.3 308.3 202.6 308.3C202.7 308.3 202.9 308.2 203 308.1C203.4 307.2 203.9 306.3 204.2 305.4C204.5 304.7 204.7 304 204.9 303.3C205 302.9 204.9 302.8 204.6 302.8C204.4 302.8 204.3 302.8 204.1 302.8C203.7 302.8 203.5 302.5 203.5 302.2C203.5 301.8 203.7 301.6 204.2 301.6C204.4 301.6 204.6 301.6 204.8 301.6C205.4 301.6 205.4 301.6 205.5 301C205.7 299.3 205.9 297.6 206 295.9C206.1 294.6 206.1 294.6 204.9 293.9C202.7 292.7 200.3 292.3 197.8 292.6C194.1 293.1 191.3 295 189.4 298.2C188.1 300.4 187.8 302.8 188.1 305.4C188.4 307.9 189.5 310.1 191.3 311.9C193 313.6 194.8 315.4 196.5 317.1C200.2 320.8 203.9 324.5 207.5 328.1C207.8 328.4 208.1 328.4 208.4 328.1C213.6 323 218.7 317.8 223.9 312.7C225 311.6 226 310.5 226.7 309.1C227.9 306.8 228.1 304.3 227.8 301.8C227.5 299.6 226.4 297.6 224.9 296C223.8 294.9 222.6 294 221.2 293.4C219 292.5 216.8 292.3 214.5 292.7C212.9 293 211.5 293.6 210.2 294.5C210 294.6 209.9 294.8 210 295C210.2 296.9 210.4 298.7 210.5 300.6C210.5 300.8 210.5 301.1 210.6 301.3C210.6 301.4 210.8 301.5 210.9 301.5C211.2 301.5 211.5 301.5 211.7 301.5C212.1 301.5 212.4 301.7 212.4 302.1C212.4 302.4 212.1 302.7 211.8 302.7C211.6 302.7 211.4 302.7 211.2 302.7C210.9 302.7 210.8 302.8 210.9 303.1C211.1 303.7 211.2 304.2 211.4 304.8C211.8 305.8 212.2 306.8 212.6 307.7C212.8 308.1 213 308.3 213.4 308.2C213.5 308.2 213.6 308.2 213.8 308.2C214.2 308.2 214.5 308.4 214.5 308.8C214.5 309.2 214.3 309.4 213.8 309.5C213.5 309.5 213.5 309.6 213.6 309.8C214.1 310.7 214.6 311.6 215.2 312.5C216.1 313.9 217.1 315.3 218 316.7C218.2 316.9 218.3 317.2 218.1 317.4C217.9 317.7 217.7 317.7 217.5 317.7C216.7 317.7 215.9 317.7 215.1 317.7C214.4 317.7 213.8 317.7 213.1 317.7C212.8 317.7 212.6 317.5 212.5 317.2C212.3 316.6 212.1 316 211.9 315.5C210.8 313.4 209.3 312.7 207.1 313C206.6 313.1 206.1 313.3 205.7 313.5C204.4 314.3 203.7 315.7 203.3 317.1C203.2 317.6 203 317.7 202.6 317.7C201.7 317.8 201 317.8 200.3 317.8ZM207.8 302.8C207.4 302.8 206.9 302.8 206.5 302.8C206.4 302.8 206.2 302.9 206.2 303C206.1 303.2 206.1 303.5 206 303.7C205.7 305 205.2 306.3 204.6 307.5C204 308.7 203.4 309.9 202.7 311.1C201.7 312.8 200.6 314.4 199.5 316.1C199.4 316.2 199.4 316.3 199.4 316.4C199.5 316.4 199.6 316.5 199.7 316.5C200.3 316.5 201 316.5 201.6 316.5C201.8 316.5 202 316.4 202 316.2C202.2 315.8 202.4 315.3 202.6 314.9C203.1 313.9 203.7 313.1 204.6 312.5C206.1 311.6 207.7 311.4 209.3 311.9C210.7 312.3 211.8 313.2 212.5 314.5C212.8 315 213 315.6 213.3 316.1C213.4 316.3 213.5 316.4 213.7 316.4C214.4 316.4 215.1 316.4 215.8 316.4C215.9 316.4 216.1 316.4 216.1 316.3C216.1 316.2 216.1 316.1 216 316C215.4 315.1 214.7 314.1 214.1 313.2C212.7 311 211.5 308.8 210.5 306.5C210 305.3 209.7 304.1 209.3 302.9C209.2 302.7 209.2 302.6 209 302.6C208.6 302.8 208.2 302.8 207.8 302.8ZM207 295.7C206.9 296.5 206.8 297.2 206.8 297.9C206.7 299 206.6 300.1 206.4 301.1C206.4 301.4 206.4 301.5 206.7 301.5C207.4 301.5 208.1 301.5 208.7 301.5C209 301.5 209.1 301.4 209 301.1C208.9 300.1 208.7 299.1 208.6 298C208.5 297.2 208.4 296.5 208.4 295.6C208 296.2 207.5 296.2 207 295.7ZM207.8 285.7L206.779 287.6C206.779 287.6 207.508 288.223 207.6 288.5C207.6 288.5 207.398 291.83 207.3 293.3C207.3 293.6 207.5 293.8 207.7 293.9C207.9 294 208.1 293.9 208.3 293.8C208.5 293.6 208.5 293.4 208.5 293.2C208.4 290.7 208 288.5 208 288.5L209 287.5L207.8 285.7Z" fill="#3F4255"/>
<path fill-rule="evenodd" clip-rule="evenodd" d="M196.9 295.1C197.4 295.1 197.8 295.5 197.8 295.9C197.9 296.3 197.6 296.6 197.2 296.8C196.6 297 196 297.2 195.4 297.6C193.2 299 191.9 301 191.9 303.6C191.9 304.3 192 305.1 192.1 305.8C192.1 306.2 191.8 306.7 191.4 306.8C191 306.9 190.5 306.7 190.4 306.2C190.1 305.3 190 304.3 190 303.4C190.1 302 190.5 300.7 191.1 299.5C192.2 297.6 193.7 296.2 195.7 295.4C196.2 295.3 196.6 295.2 196.9 295.1Z" fill="#3F4255"/>
<path fill-rule="evenodd" clip-rule="evenodd" d="M207.8 309.8C207.3 309.8 206.7 309.8 206.2 309.8C205.7 309.8 205.4 309.5 205.5 309C205.7 308.2 205.9 307.4 206.1 306.7C206.2 306.1 206.3 305.5 206.4 304.8C206.5 304.4 206.6 304.1 207.1 304.1C207.6 304.1 208.1 304.1 208.5 304.1C208.9 304.1 209.1 304.3 209.2 304.7C209.5 306.1 209.8 307.5 210.1 309C210.2 309.6 210 309.9 209.4 309.9C208.8 309.8 208.3 309.8 207.8 309.8ZM207.7 308.5C207.9 308.5 208.2 308.5 208.4 308.5C208.6 308.5 208.6 308.4 208.6 308.2C208.4 307.3 208.2 306.5 208 305.6C208 305.4 208 305.2 207.7 305.2C207.4 305.2 207.4 305.4 207.4 305.6C207.3 306.3 207.2 306.9 207 307.6C206.9 308.5 206.8 308.5 207.7 308.5Z" fill="#3F4255"/>
<path fill-rule="evenodd" clip-rule="evenodd" d="M218.3 294.2C217.8 294.2 217.4 294.6 217.4 295C217.3 295.4 217.6 295.7 218 295.9C218.6 296.1 219.2 296.3 219.8 296.7C222 298.1 223.3 300.1 223.3 302.7C223.3 303.4 223.2 304.2 223.1 304.9C223.1 305.3 223.4 305.8 223.8 305.9C224.2 306 224.7 305.8 224.8 305.3C225.1 304.4 225.2 303.4 225.2 302.5C225.1 301.1 224.7 299.8 224.1 298.6C223 296.7 221.5 295.3 219.5 294.5C219 294.4 218.6 294.3 218.3 294.2Z" fill="white"/>
<g clip-path="url(#clip1_48_509)">
<path fill-rule="evenodd" clip-rule="evenodd" d="M93.4772 298C91.6453 298 90.2411 299.628 90.5096 301.44L92.9567 317.958C92.3446 319.173 92 320.546 92 322C92 326.971 96.0294 331 101 331C104.919 331 108.252 328.496 109.488 325H118.512C119.748 328.496 123.081 331 127 331C131.971 331 136 326.971 136 322C136 319.136 134.662 316.584 132.577 314.936L130.344 305.659C129.262 301.167 125.243 298 120.622 298H107H93.4772Z" fill="#FFE145"/>
<path d="M135.25 323.5C135.25 321.046 133.916 318.822 131.811 317.634C132.096 316.756 132.25 315.832 132.25 314.883C132.25 311.204 129.935 307.863 126.489 306.57L126.25 306.48V305.083C126.693 305.341 127.201 305.5 127.75 305.5H133.75V299.5H127.75C127.201 299.5 126.693 299.659 126.25 299.917V299.5C126.25 298.299 125.667 297.177 124.709 296.476C124.515 295.219 123.435 294.25 122.125 294.25L112.953 294.249C114.027 293.305 114.759 291.987 114.946 290.499H117.248C118.488 290.499 119.498 289.489 119.498 288.249C119.498 287.008 118.488 285.999 117.248 285.999H113.667C112.532 284.587 110.821 283.749 108.998 283.749C105.69 283.749 102.998 286.44 102.998 289.749C102.998 291.973 104.217 293.914 106.02 294.951C104.454 295.725 103.232 297.087 102.641 298.75H91C89.7595 298.75 88.75 299.76 88.75 301V310C88.75 311.241 89.7595 312.25 91 312.25H93.3333C92.3575 313.204 91.75 314.532 91.75 316V317.52C90.8447 318.204 90.25 319.28 90.25 320.5C90.25 322.568 91.9323 324.25 94 324.25H95.5757C95.9245 325.959 97.4388 327.25 99.25 327.25C101.061 327.25 102.576 325.959 102.924 324.25H123.326C123.674 325.959 125.189 327.25 127 327.25C128.811 327.25 130.326 325.959 130.674 324.25H135.25V323.5ZM130.75 314.883C130.75 316.854 129.983 318.708 128.589 320.101L125.939 322.75H123.25V299.237C123.706 299.019 124.087 298.676 124.351 298.249C124.598 298.616 124.75 299.045 124.75 299.5V307.52L125.962 307.974C128.826 309.048 130.75 311.825 130.75 314.883ZM120.162 320.044L118.03 310.981C117.475 308.619 115.57 306.835 113.175 306.436L112.75 306.365L112.749 299.5H121.75V322.75H119.722C120.063 322.224 120.249 321.614 120.249 320.973V320.793C120.249 320.544 120.219 320.292 120.162 320.044ZM132.25 304H130.75V301H132.25V304ZM127.75 301H129.25V304H127.75C126.923 304 126.25 303.327 126.25 302.5C126.25 301.673 126.923 301 127.75 301ZM117.999 288.249C117.999 288.662 117.663 288.999 117.249 288.999H110.962L111.09 288.743C111.474 287.976 112.245 287.499 113.103 287.499H117.249C117.663 287.499 117.999 287.835 117.999 288.249ZM108.998 285.249C110.03 285.249 111.013 285.609 111.801 286.238C110.924 286.561 110.184 287.199 109.748 288.072L109.285 288.999H104.566C104.925 286.874 106.773 285.249 108.998 285.249ZM104.566 290.499H113.43C113.072 292.623 111.224 294.249 108.998 294.249C106.772 294.249 104.925 292.623 104.566 290.499ZM103.748 301C103.748 298.104 106.104 295.749 109 295.749L122.125 295.75C122.745 295.75 123.25 296.255 123.25 296.875C123.25 297.495 122.745 298 122.125 298H108.25V299.5H111.248L111.25 307.635L112.929 307.916C114.725 308.214 116.153 309.553 116.57 311.324L118.701 320.385C118.733 320.52 118.749 320.657 118.749 320.793V320.973C118.749 321.448 118.564 321.894 118.229 322.23C117.893 322.566 117.447 322.75 116.972 322.75C116.156 322.75 115.448 322.197 115.249 321.405L113.296 313.59C112.878 311.918 111.382 310.75 109.658 310.75L107.498 310.749C105.43 310.749 103.748 309.067 103.748 306.999V301ZM114.221 322.75H111.25V316C111.25 314.532 110.642 313.205 109.668 312.251C110.698 312.255 111.591 312.954 111.842 313.953L113.795 321.768C113.883 322.125 114.03 322.455 114.221 322.75ZM91 310.75C90.586 310.75 90.25 310.414 90.25 310V301C90.25 300.587 90.586 300.25 91 300.25H102.293C102.265 300.497 102.248 300.747 102.248 301V306.999C102.248 308.468 102.857 309.796 103.832 310.75H103H97H91ZM99.25 325.75C98.2735 325.75 97.4485 325.121 97.138 324.25H101.361C101.052 325.121 100.226 325.75 99.25 325.75ZM106.75 322.75H94C92.7595 322.75 91.75 321.741 91.75 320.5C91.75 319.26 92.7595 318.25 94 318.25H104.5C105.74 318.25 106.75 319.26 106.75 320.5V322.75ZM104.5 316.75H94C93.7435 316.75 93.4922 316.776 93.25 316.826V316C93.25 313.932 94.9323 312.25 97 312.25H103H106C108.068 312.25 109.75 313.932 109.75 316V322.75H108.25V320.5C108.25 318.432 106.568 316.75 104.5 316.75ZM127 325.75C126.023 325.75 125.198 325.121 124.888 324.25H129.111C128.801 325.121 127.977 325.75 127 325.75ZM128.061 322.75L129.649 321.162C130.29 320.52 130.819 319.797 131.231 319.018C132.568 319.833 133.474 321.201 133.697 322.75H128.061Z" fill="#313030"/>
<path d="M99.25 319.75H100.75V321.25H99.25V319.75Z" fill="#313030"/>
<path d="M93.25 319.75H94.75V321.25H93.25V319.75Z" fill="#313030"/>
<path d="M96.25 319.75H97.75V321.25H96.25V319.75Z" fill="#313030"/>
</g>
<g clip-path="url(#clip2_48_509)">
<circle cx="303" cy="308" r="23" fill="#FFE145"/>
<path d="M305 329C309.179 329.004 313.28 327.865 316.859 325.708C317.221 325.489 317.337 325.017 317.118 324.655C316.899 324.292 316.428 324.176 316.065 324.395C309.076 328.59 300.313 328.465 293.447 324.07C286.581 319.676 282.796 311.772 283.677 303.668C284.559 295.564 289.954 288.659 297.605 285.843C298.002 285.698 298.206 285.257 298.06 284.859C297.915 284.462 297.474 284.258 297.076 284.404C286.603 288.241 280.392 299.041 282.343 310.023C284.295 321.006 293.845 329.005 305 329Z" fill="#313030"/>
<path d="M312.395 285.843C318.451 288.068 323.186 292.897 325.291 298.996C327.396 305.094 326.649 311.816 323.255 317.303C323.111 317.536 323.102 317.828 323.231 318.069C323.36 318.311 323.609 318.465 323.883 318.473C324.156 318.482 324.414 318.344 324.558 318.111C328.195 312.232 328.997 305.03 326.741 298.496C324.486 291.961 319.412 286.787 312.923 284.404C312.526 284.258 312.085 284.462 311.939 284.859C311.794 285.257 311.998 285.698 312.395 285.843Z" fill="#313030"/>
<path d="M301.933 297.245V303.724C301.12 304.799 300.937 306.225 301.453 307.47C301.969 308.716 303.106 309.595 304.442 309.78L310.416 315.755L310.421 315.762L321.263 326.6C321.551 326.888 321.941 327.05 322.348 327.05C322.755 327.05 323.145 326.888 323.432 326.6C325.833 324.198 324.414 321.08 318.011 314.674L314.758 311.421H314.753L308.777 305.441C308.686 304.819 308.442 304.229 308.067 303.724V297.243C309.464 296.636 310.368 295.257 310.367 293.733V285.3C310.371 284.689 310.127 284.103 309.69 283.677C309.653 283.638 309.614 283.602 309.572 283.569C308.7 282.8 307.389 282.813 306.533 283.599C306.109 283.207 305.552 282.993 304.975 283C304.415 283.012 303.879 283.224 303.462 283.598C302.614 282.818 301.315 282.799 300.445 283.554C299.929 283.987 299.631 284.626 299.633 285.3V293.733C299.631 295.258 300.535 296.638 301.933 297.245ZM310.965 314.127L306.395 309.557C307.387 309.168 308.172 308.383 308.561 307.391L313.127 311.965L310.965 314.127ZM306.533 302.492C305.557 302.058 304.443 302.058 303.467 302.492V297.567H306.533V302.492ZM302.7 306C302.7 304.73 303.73 303.7 305 303.7C306.27 303.7 307.3 304.73 307.3 306C307.3 307.27 306.27 308.3 305 308.3C303.73 308.3 302.7 307.27 302.7 306ZM322.347 325.516L312.048 315.216L314.216 313.048L316.927 315.758C324.516 323.347 323.159 324.707 322.347 325.516ZM301.167 285.3C301.169 285.074 301.271 284.86 301.445 284.716C301.749 284.456 302.203 284.479 302.48 284.768C302.622 284.908 302.701 285.1 302.7 285.3V291.433C302.7 291.857 303.043 292.2 303.467 292.2C303.89 292.2 304.233 291.857 304.233 291.433V285.3C304.239 284.9 304.547 284.569 304.946 284.533H305.072C305.465 284.574 305.764 284.905 305.767 285.3V291.433C305.767 291.857 306.11 292.2 306.533 292.2C306.957 292.2 307.3 291.857 307.3 291.433V285.3C307.3 284.877 307.643 284.533 308.067 284.533C308.49 284.533 308.833 284.877 308.833 285.3V293.733C308.834 294.788 308.116 295.707 307.092 295.962C306.91 296.012 306.722 296.036 306.533 296.033H303.467C303.271 296.035 303.077 296.009 302.889 295.957C301.874 295.697 301.164 294.781 301.167 293.733V285.3Z" fill="#313030"/>
<path d="M298.03 288.96C297.854 288.575 297.399 288.406 297.014 288.582C296.488 288.823 295.981 289.093 295.481 289.378C295.459 289.389 295.435 289.389 295.414 289.401C295.392 289.413 295.374 289.439 295.351 289.455C292.504 291.12 290.135 293.491 288.472 296.34C288.447 296.364 288.423 296.389 288.402 296.417C288.389 296.446 288.379 296.476 288.371 296.506C284.982 302.4 284.988 309.652 288.386 315.54C288.394 315.553 288.393 315.57 288.402 315.583C288.41 315.597 288.429 315.618 288.442 315.636C290.12 318.506 292.51 320.894 295.381 322.568C295.394 322.577 295.402 322.591 295.417 322.599C295.438 322.609 295.461 322.619 295.483 322.627C301.197 325.908 308.197 326.017 314.01 322.914C314.259 322.789 314.42 322.539 314.432 322.261C314.443 321.982 314.302 321.72 314.065 321.575C313.827 321.43 313.529 321.425 313.287 321.563C310.965 322.798 308.395 323.498 305.767 323.61V322.1C305.767 321.677 305.423 321.333 305 321.333C304.577 321.333 304.233 321.677 304.233 322.1V323.614C301.659 323.505 299.141 322.829 296.859 321.634L297.614 320.327C297.753 320.089 297.754 319.796 297.617 319.557C297.48 319.319 297.226 319.172 296.951 319.172C296.676 319.173 296.422 319.321 296.286 319.56L295.532 320.863C293.364 319.476 291.522 317.635 290.135 315.466L291.438 314.712C291.678 314.576 291.826 314.323 291.826 314.048C291.827 313.772 291.68 313.518 291.441 313.381C291.203 313.244 290.909 313.245 290.672 313.385L289.368 314.14C288.173 311.858 287.496 309.34 287.386 306.767H288.9C289.323 306.767 289.667 306.423 289.667 306C289.667 305.577 289.323 305.233 288.9 305.233H287.395C287.507 302.662 288.183 300.146 289.375 297.864L290.673 298.614C290.911 298.753 291.204 298.754 291.443 298.617C291.681 298.48 291.828 298.226 291.828 297.951C291.827 297.676 291.679 297.422 291.44 297.286L290.137 296.533C291.52 294.362 293.361 292.519 295.532 291.134L296.286 292.438C296.422 292.677 296.676 292.825 296.951 292.825C297.226 292.826 297.48 292.679 297.617 292.441C297.754 292.202 297.753 291.908 297.614 291.671L296.863 290.368C297.124 290.232 297.383 290.094 297.652 289.971C298.034 289.794 298.203 289.344 298.03 288.96Z" fill="#313030"/>
<path d="M320.859 315.338C321.037 315.435 321.247 315.456 321.442 315.398C321.637 315.34 321.801 315.206 321.897 315.027C325.016 309.223 324.914 302.218 321.629 296.506C321.621 296.476 321.611 296.446 321.598 296.417C321.577 296.389 321.554 296.364 321.529 296.34C319.865 293.491 317.494 291.12 314.645 289.455C314.622 289.439 314.608 289.415 314.583 289.401C314.561 289.392 314.539 289.385 314.516 289.379C314.019 289.093 313.512 288.823 312.983 288.582C312.601 288.425 312.164 288.598 311.994 288.974C311.823 289.349 311.979 289.792 312.348 289.977C312.617 290.1 312.876 290.238 313.137 290.374L312.386 291.677C312.247 291.914 312.246 292.208 312.383 292.447C312.52 292.685 312.774 292.832 313.049 292.831C313.324 292.831 313.578 292.683 313.714 292.444L314.468 291.14C316.639 292.525 318.48 294.368 319.863 296.539L318.56 297.292C318.321 297.428 318.173 297.682 318.172 297.957C318.172 298.232 318.319 298.486 318.557 298.623C318.796 298.76 319.089 298.759 319.327 298.62L320.625 297.87C321.816 300.15 322.492 302.664 322.605 305.233H321.1C320.677 305.233 320.333 305.577 320.333 306C320.333 306.423 320.677 306.767 321.1 306.767H322.61C322.499 309.401 321.795 311.976 320.548 314.299C320.451 314.478 320.43 314.688 320.488 314.883C320.546 315.078 320.68 315.241 320.859 315.338Z" fill="#313030"/>
</g>
<path d="M128.803 223.071V224.008C128.803 226.057 127.142 227.717 125.094 227.717H98.9059C96.8576 227.717 95.1971 226.057 95.1971 224.008V223.071H128.803Z" fill="#FFE145"/>
<path d="M128.756 203.388V204.916H95.245V203.388C95.245 198.359 99.3214 194.283 104.35 194.283H119.651C124.679 194.283 128.756 198.359 128.756 203.388Z" fill="#FFE145"/>
<path d="M136 213.243H135.062C136.38 211.554 136.078 209.117 134.389 207.8C133.793 207.335 133.074 207.054 132.32 206.993V203.388C132.32 196.403 126.637 190.72 119.653 190.72H104.35C97.3647 190.72 91.6825 196.404 91.6825 203.388V206.993C89.5475 207.166 87.9572 209.037 88.1305 211.172C88.1917 211.926 88.4722 212.646 88.9375 213.243H88V214.743H89.9941V221.008H91.6347V224.008C91.6388 228.022 94.8918 231.275 98.9059 231.28H125.094C129.108 231.275 132.361 228.022 132.365 224.008V221.008H134.006V214.743H136V213.243ZM93.1816 203.388C93.1883 197.223 98.1846 192.226 104.35 192.22H119.65C125.815 192.226 130.812 197.223 130.818 203.388V206.979H93.1816V203.388ZM92.0013 208.479H131.999C133.315 208.479 134.381 209.545 134.381 210.861C134.381 212.177 133.315 213.244 131.999 213.244H92.0013C90.6854 213.244 89.6186 212.177 89.6186 210.861C89.6186 209.545 90.6854 208.479 92.0013 208.479ZM125.786 214.744L122.711 216.15L119.636 214.744H125.786ZM130.864 224.009C130.861 227.195 128.279 229.777 125.093 229.78H98.9059C95.72 229.777 93.1383 227.195 93.1347 224.009V221.009H130.865L130.864 224.009ZM132.505 219.509H91.4941V214.743H117.203L122.711 218.055L128.219 214.743H132.505V219.509Z" fill="#B79C10"/>
<path d="M195.968 217.367V216.062C195.973 211.611 199.58 208.005 204.031 208H207.849C213.6 208 218.432 212.004 219.705 217.375L195.968 217.367Z" fill="#FFE145"/>
<path d="M232 219.429H223.576C223.418 216.169 222.252 213.039 220.238 210.471C220.474 209.607 220.465 208.695 220.211 207.837L222.683 205.365C223.851 206.247 225.513 206.016 226.396 204.849C227.278 203.681 227.047 202.019 225.879 201.136C225.409 200.781 224.834 200.592 224.244 200.601C224.265 199.137 223.095 197.934 221.631 197.913C220.168 197.893 218.964 199.063 218.944 200.526C218.936 201.116 219.124 201.691 219.48 202.161L217.01 204.631C215.618 204.216 214.112 204.457 212.92 205.287C211.294 204.736 209.589 204.456 207.872 204.458H204.029C197.611 204.466 192.411 209.666 192.404 216.083V219.43H184V220.93H190.551L193.989 224.087H222.011L225.449 220.93H232V219.429ZM221.732 202.032L220.963 201.526C220.432 201.177 220.283 200.464 220.632 199.933C220.98 199.402 221.693 199.254 222.224 199.602C222.756 199.95 222.904 200.663 222.556 201.195C222.513 201.26 222.463 201.321 222.408 201.377L223.469 202.438C223.918 201.989 224.646 201.989 225.095 202.438C225.545 202.887 225.545 203.615 225.096 204.065C224.646 204.514 223.918 204.514 223.469 204.065C223.413 204.009 223.364 203.948 223.321 203.883L222.814 203.114L219.512 206.416C219.213 205.999 218.847 205.634 218.431 205.334L221.732 202.032ZM193.906 216.082C193.912 210.493 198.441 205.964 204.031 205.957H207.874C209.146 205.956 210.413 206.125 211.639 206.461L209.424 208.674L210.484 209.735L213.328 206.891C214.605 205.614 216.677 205.614 217.954 206.892C219.231 208.169 219.231 210.24 217.953 211.518L215.11 214.361L216.17 215.421L219.014 212.578C219.193 212.399 219.357 212.205 219.506 212C221.041 214.186 221.931 216.761 222.073 219.429H193.906V216.082ZM221.427 222.586H194.573L192.769 220.929H223.231L221.427 222.586Z" fill="#B79C10"/>
<path d="M196.968 215.395C196.968 215.965 197.43 216.427 197.999 216.427C198.569 216.427 199.031 215.965 199.031 215.395C199.031 214.826 198.569 214.364 197.999 214.364C197.43 214.364 196.968 214.826 196.968 215.395Z" fill="#B79C10"/>
<path d="M201.898 215.395C201.898 215.965 202.36 216.427 202.93 216.427C203.499 216.427 203.961 215.965 203.961 215.395C203.961 214.826 203.499 214.364 202.93 214.364C202.36 214.364 201.898 214.826 201.898 215.395Z" fill="#B79C10"/>
<path d="M199.433 211.681C199.433 212.25 199.894 212.712 200.464 212.712C201.034 212.712 201.495 212.25 201.495 211.681C201.495 211.111 201.034 210.649 200.464 210.649C199.894 210.649 199.433 211.111 199.433 211.681Z" fill="#B79C10"/>
<path d="M682.725 205.167C679.572 205.167 676.582 205.756 674.048 206.855C677.49 211.19 677.483 217.327 674.031 221.655C676.568 222.756 679.565 223.343 682.725 223.343C688.878 223.343 694.014 219.267 697.394 214.255C694.01 209.237 688.882 205.167 682.725 205.167Z" fill="#FFE145"/>
<path d="M711.25 206.517C707.072 206.517 703.278 209.597 700.758 212.885C697.883 208.338 693.449 204.194 688.184 202.474V195.093L675.695 202.518C669.821 204.119 664 208.258 664 214.255C664 221.674 672.958 226.907 682.724 226.907C690.281 226.907 696.77 221.936 700.758 215.626C703.281 218.909 707.071 221.993 711.25 221.993H712V206.518L711.25 206.517ZM686.682 197.731V202.061C684.794 201.622 682.786 201.459 679.937 201.742L686.682 197.731ZM665.501 214.255C665.501 210.44 668.434 207.445 671.812 205.642C677.233 210.097 677.233 218.412 671.792 222.856C668.407 221.044 665.501 218.05 665.501 214.255ZM682.724 225.406C679.32 225.406 676.077 224.772 673.268 223.565C678.738 218.581 678.745 209.93 673.289 204.935C676.092 203.735 679.328 203.103 682.724 203.103C690.06 203.103 696.3 208.281 699.821 214.231L699.806 214.255L699.821 214.278C696.295 220.247 690.054 225.406 682.724 225.406ZM710.499 220.453C706.079 219.994 702.596 215.62 701.609 214.255C702.594 212.888 706.07 208.516 710.499 208.057V220.453Z" fill="#B79C10"/>
<path d="M600.082 208.724V187H588.419V191.717H583.339V208.697L577 208.687L580.662 235H602.759L606.413 208.738L600.082 208.724ZM595.003 188.502H598.577V208.688H595.003V188.502ZM589.923 188.502H593.498V208.688H589.923V188.502ZM584.844 193.222H588.418V208.688H584.844V193.222ZM601.45 233.495H581.971L578.731 210.194L604.684 210.237L601.45 233.495Z" fill="#B79C10"/>
<path d="M581.108 212.267L583.773 231.426H599.648L602.308 212.306L581.108 212.267ZM591.71 228.134C588.646 228.134 586.161 225.649 586.161 222.584C586.161 219.52 588.646 217.035 591.71 217.035C594.775 217.035 597.26 219.52 597.26 222.584C597.26 225.649 594.775 228.134 591.71 228.134Z" fill="#FFE145"/>
<path d="M591.71 228.886C588.23 228.886 585.409 226.065 585.409 222.584C585.409 219.104 588.23 216.283 591.71 216.283C595.191 216.283 598.012 219.104 598.012 222.584C598.007 226.063 595.189 228.881 591.71 228.886ZM591.71 217.788C589.061 217.788 586.914 219.935 586.914 222.584C586.914 225.234 589.061 227.381 591.71 227.381C594.36 227.381 596.507 225.234 596.507 222.584C596.503 219.937 594.358 217.792 591.71 217.788Z" fill="#B79C10"/>
<g clip-path="url(#clip3_48_509)">
<path d="M304 231.438C292.713 231.438 283.562 222.287 283.562 211C283.562 199.713 292.713 190.562 304 190.562C315.287 190.562 324.438 199.713 324.438 211C324.444 222.281 315.304 231.431 304.022 231.438C304.015 231.438 304.007 231.438 304 231.438ZM304 204.668C300.503 204.668 297.668 207.503 297.668 211C297.668 214.497 300.503 217.332 304 217.332C307.497 217.332 310.332 214.497 310.332 211C310.328 207.505 307.495 204.672 304 204.668Z" fill="#FFE145"/>
<path d="M304 235C290.735 235 280 224.266 280 211C280 197.734 290.734 187 304 187C317.266 187 328 197.734 328 211C328 224.266 317.266 235 304 235ZM304 188.5C291.564 188.5 281.5 198.563 281.5 211C281.5 223.437 291.563 233.5 304 233.5C316.437 233.5 326.5 223.437 326.5 211C326.5 198.563 316.437 188.5 304 188.5ZM304 218.082C300.089 218.082 296.918 214.911 296.918 211C296.918 207.089 300.089 203.918 304 203.918C307.911 203.918 311.082 207.089 311.082 211C311.078 214.909 307.909 218.078 304 218.082ZM304 205.419C300.917 205.419 298.418 207.918 298.418 211.001C298.418 214.084 300.917 216.583 304 216.583C307.083 216.583 309.582 214.084 309.582 211.001C309.582 211.001 309.582 211 309.582 211C309.579 207.919 307.081 205.421 304 205.418V205.419Z" fill="#B79C10"/>
<path d="M308.569 199.502V197.898C308.569 197.484 308.234 197.148 307.819 197.148C307.405 197.148 307.069 197.484 307.069 197.898V199.502C307.069 199.916 307.405 200.252 307.819 200.252C308.234 200.252 308.569 199.916 308.569 199.502Z" fill="#B79C10"/>
<path d="M315.494 198.197V196.594C315.494 196.18 315.159 195.844 314.744 195.844C314.33 195.844 313.994 196.18 313.994 196.594V198.197C313.994 198.611 314.33 198.947 314.744 198.947C315.159 198.947 315.494 198.611 315.494 198.197Z" fill="#B79C10"/>
<path d="M316.489 209.165V207.562C316.489 207.148 316.154 206.812 315.739 206.812C315.325 206.812 314.989 207.148 314.989 207.562V209.165C314.989 209.58 315.325 209.915 315.739 209.915C316.154 209.915 316.489 209.58 316.489 209.165Z" fill="#B79C10"/>
<path d="M310.502 227.757V226.154C310.502 225.74 310.166 225.404 309.752 225.404C309.338 225.404 309.002 225.74 309.002 226.154V227.757C309.002 228.172 309.338 228.507 309.752 228.507C310.166 228.507 310.502 228.172 310.502 227.757Z" fill="#B79C10"/>
<path d="M303.949 222.975V221.372C303.949 220.957 303.614 220.622 303.199 220.622C302.785 220.622 302.449 220.957 302.449 221.372V222.975C302.449 223.389 302.785 223.725 303.199 223.725C303.614 223.725 303.949 223.389 303.949 222.975Z" fill="#B79C10"/>
<path d="M297.752 226.406V224.803C297.752 224.389 297.416 224.053 297.002 224.053C296.588 224.053 296.252 224.389 296.252 224.803V226.406C296.252 226.82 296.588 227.156 297.002 227.156C297.416 227.156 297.752 226.82 297.752 226.406Z" fill="#B79C10"/>
<path d="M321.547 216.647V215.043C321.547 214.629 321.211 214.293 320.797 214.293C320.382 214.293 320.047 214.629 320.047 215.043V216.647C320.047 217.061 320.382 217.397 320.797 217.397C321.211 217.397 321.547 217.061 321.547 216.647Z" fill="#B79C10"/>
<path d="M313.718 219.355V217.752C313.718 217.338 313.382 217.002 312.968 217.002C312.554 217.002 312.218 217.338 312.218 217.752V219.355C312.218 219.769 312.554 220.105 312.968 220.105C313.382 220.105 313.718 219.769 313.718 219.355Z" fill="#B79C10"/>
<path d="M294.971 205.763V204.16C294.971 203.746 294.635 203.41 294.221 203.41C293.807 203.41 293.471 203.746 293.471 204.16V205.763C293.471 206.177 293.807 206.513 294.221 206.513C294.635 206.513 294.971 206.177 294.971 205.763Z" fill="#B79C10"/>
<path d="M298.32 195.501V193.899C298.32 193.485 297.984 193.149 297.57 193.149C297.155 193.149 296.82 193.485 296.82 193.899V195.501C296.82 195.916 297.155 196.251 297.57 196.251C297.984 196.251 298.32 195.916 298.32 195.501Z" fill="#B79C10"/>
<path d="M287.562 211.501V209.897C287.562 209.483 287.227 209.147 286.812 209.147C286.398 209.147 286.062 209.483 286.062 209.897V211.501C286.062 211.915 286.398 212.251 286.812 212.251C287.227 212.251 287.562 211.915 287.562 211.501Z" fill="#B79C10"/>
<path d="M294.543 218.611V217.008C294.543 216.593 294.208 216.258 293.793 216.258C293.379 216.258 293.043 216.593 293.043 217.008V218.611C293.043 219.025 293.379 219.361 293.793 219.361C294.208 219.361 294.543 219.025 294.543 218.611Z" fill="#B79C10"/>
</g>
<path fill-rule="evenodd" clip-rule="evenodd" d="M108 535.967L98.5666 526.533C93.3666 521.333 93.3666 512.883 98.5666 507.683C101.167 505.083 104.583 503.783 108 503.783C111.417 503.783 114.833 505.083 117.433 507.683C122.633 512.883 122.633 521.333 117.433 526.533L108 535.967ZM108 521.667C110.761 521.667 113 519.428 113 516.667C113 513.905 110.761 511.667 108 511.667C105.239 511.667 103 513.905 103 516.667C103 519.428 105.239 521.667 108 521.667Z" fill="#313030"/>
<path fill-rule="evenodd" clip-rule="evenodd" d="M149 433.127C151.892 433.127 152.231 433.14 153.374 433.192C154.431 433.239 155.003 433.415 155.385 433.565C155.892 433.763 156.253 433.995 156.631 434.373C157.009 434.751 157.246 435.112 157.439 435.619C157.585 436.002 157.766 436.573 157.813 437.63C157.865 438.773 157.877 439.113 157.877 442.004C157.877 444.896 157.865 445.236 157.813 446.379C157.766 447.436 157.59 448.007 157.439 448.39C157.242 448.897 157.009 449.258 156.631 449.636C156.253 450.014 155.892 450.25 155.385 450.443C155.003 450.59 154.431 450.77 153.374 450.817C152.231 450.869 151.892 450.882 149 450.882C146.108 450.882 145.769 450.869 144.626 450.817C143.569 450.77 142.997 450.594 142.615 450.443C142.108 450.246 141.747 450.014 141.369 449.636C140.991 449.258 140.754 448.897 140.561 448.39C140.415 448.007 140.234 447.436 140.187 446.379C140.136 445.236 140.123 444.896 140.123 442.004C140.123 439.113 140.136 438.773 140.187 437.63C140.234 436.573 140.411 436.002 140.561 435.619C140.759 435.112 140.991 434.751 141.369 434.373C141.747 433.995 142.108 433.759 142.615 433.565C142.997 433.419 143.569 433.239 144.626 433.192C145.769 433.136 146.108 433.127 149 433.127ZM149 431.176C146.061 431.176 145.692 431.189 144.536 431.241C143.384 431.292 142.598 431.477 141.91 431.743C141.197 432.018 140.595 432.392 139.994 432.994C139.392 433.595 139.023 434.201 138.743 434.91C138.477 435.598 138.292 436.384 138.241 437.54C138.189 438.692 138.176 439.061 138.176 442C138.176 444.939 138.189 445.309 138.241 446.465C138.292 447.616 138.477 448.402 138.743 449.094C139.018 449.808 139.392 450.409 139.994 451.011C140.595 451.612 141.201 451.982 141.91 452.261C142.598 452.527 143.384 452.712 144.54 452.764C145.696 452.815 146.061 452.828 149.004 452.828C151.948 452.828 152.313 452.815 153.469 452.764C154.62 452.712 155.407 452.527 156.099 452.261C156.812 451.986 157.413 451.612 158.015 451.011C158.617 450.409 158.986 449.803 159.265 449.094C159.532 448.407 159.717 447.62 159.768 446.465C159.82 445.309 159.833 444.943 159.833 442C159.833 439.057 159.82 438.692 159.768 437.536C159.717 436.384 159.532 435.598 159.265 434.906C158.99 434.193 158.617 433.591 158.015 432.99C157.413 432.388 156.808 432.018 156.099 431.739C155.411 431.473 154.625 431.288 153.469 431.236C152.309 431.189 151.939 431.176 149 431.176ZM149 436.44C145.932 436.44 143.44 438.928 143.44 442C143.44 445.072 145.932 447.56 149 447.56C152.068 447.56 154.56 445.068 154.56 442C154.56 438.932 152.068 436.44 149 436.44ZM149 445.609C147.006 445.609 145.391 443.994 145.391 442C145.391 440.006 147.006 438.391 149 438.391C150.994 438.391 152.609 440.006 152.609 442C152.609 443.994 150.994 445.609 149 445.609ZM156.077 436.221C156.077 436.937 155.496 437.518 154.779 437.518C154.062 437.518 153.481 436.937 153.481 436.221C153.481 435.504 154.062 434.923 154.779 434.923C155.496 434.923 156.077 435.504 156.077 436.221Z" fill="#D4D7E6"/>
<path d="M256 442C256 435.93 251.07 431 245 431C238.93 431 234 435.93 234 442C234 447.494 238.028 452.041 243.285 452.865V445.17H240.476V441.989H243.285V439.563C243.285 436.81 244.921 435.276 247.426 435.276C248.633 435.276 249.874 435.513 249.874 435.513V438.198H248.497C247.132 438.198 246.692 439.055 246.692 439.924V441.989H249.75L249.265 445.17H246.704V452.865C251.972 452.041 256 447.494 256 442Z" fill="#D4D7E6"/>
<path d="M207 435.13C206.264 435.491 205.474 435.736 204.644 435.846C205.492 435.283 206.14 434.392 206.448 433.332C205.653 433.853 204.775 434.231 203.841 434.436C203.092 433.551 202.027 433 200.846 433C198.58 433 196.743 435.036 196.743 437.545C196.743 437.901 196.779 438.248 196.849 438.58C193.44 438.391 190.417 436.581 188.393 433.831C188.04 434.501 187.839 435.282 187.839 436.116C187.839 437.693 188.563 439.084 189.663 439.899C188.991 439.874 188.358 439.669 187.805 439.328V439.385C187.805 441.587 189.22 443.424 191.095 443.842C190.752 443.945 190.389 444.002 190.014 444.002C189.749 444.002 189.493 443.973 189.242 443.917C189.764 445.724 191.279 447.038 193.074 447.074C191.67 448.293 189.901 449.017 187.979 449.017C187.647 449.017 187.321 448.995 187 448.955C188.816 450.247 190.972 451 193.289 451C200.836 451 204.962 444.074 204.962 438.067L204.948 437.478C205.754 436.841 206.451 436.041 207 435.13Z" fill="#D4D7E6"/>
<rect x="40" y="379" width="1296" height="1" fill="#F2F4FA"/>
<g clip-path="url(#clip4_48_509)">
<path d="M344.55 443C345.3 443 345.96 442.59 346.3 441.97L349.88 435.48C350.25 434.82 349.77 434 349.01 434H334.21L333.27 432H330V434H332L335.6 441.59L334.25 444.03C333.52 445.37 334.48 447 336 447H348V445H336L337.1 443H344.55ZM335.16 436H347.31L344.55 441H337.53L335.16 436ZM336 448C334.9 448 334.01 448.9 334.01 450C334.01 451.1 334.9 452 336 452C337.1 452 338 451.1 338 450C338 448.9 337.1 448 336 448ZM346 448C344.9 448 344.01 448.9 344.01 450C344.01 451.1 344.9 452 346 452C347.1 452 348 451.1 348 450C348 448.9 347.1 448 346 448Z" fill="#D4D7E6"/>
</g>
<path d="M293 436C294.1 436 295 436.9 295 438C295 439.1 294.1 440 293 440C291.9 440 291 439.1 291 438C291 436.9 291.9 436 293 436ZM293 446C295.7 446 298.8 447.29 299 448H293H287C287.23 447.28 290.31 446 293 446ZM293 434C290.79 434 289 435.79 289 438C289 440.21 290.79 442 293 442C295.21 442 297 440.21 297 438C297 435.79 295.21 434 293 434ZM293 444C290.33 444 285 445.34 285 448V450H301V448C301 445.34 295.67 444 293 444Z" fill="#D4D7E6"/>
<g clip-path="url(#clip5_48_509)">
<path d="M383.54 435C383.6 435.89 383.75 436.76 383.99 437.59L382.79 438.79C382.38 437.59 382.12 436.32 382.03 435H383.54ZM393.4 447.02C394.25 447.26 395.12 447.41 396 447.47V448.96C394.68 448.87 393.41 448.61 392.2 448.21L393.4 447.02ZM384.5 433H381C380.45 433 380 433.45 380 434C380 443.39 387.61 451 397 451C397.55 451 398 450.55 398 450V446.51C398 445.96 397.55 445.51 397 445.51C395.76 445.51 394.55 445.31 393.43 444.94C393.33 444.9 393.22 444.89 393.12 444.89C392.86 444.89 392.61 444.99 392.41 445.18L390.21 447.38C387.38 445.93 385.06 443.62 383.62 440.79L385.82 438.59C386.1 438.31 386.18 437.92 386.07 437.57C385.7 436.45 385.5 435.25 385.5 434C385.5 433.45 385.05 433 384.5 433Z" fill="#D4D7E6"/>
</g>
<path d="M511 442H487V440H511V442Z" fill="#9093A6"/>
<path d="M511 431H487V429H511V431Z" fill="#9093A6"/>
<path d="M511 453H487V451H511V453Z" fill="#9093A6"/>
<path d="M547.385 433.444L530.414 450.414L529 449L545.971 432.029L547.385 433.444Z" fill="#9093A6"/>
<path d="M545.556 450.385L528.586 433.414L530 432L546.971 448.971L545.556 450.385Z" fill="#9093A6"/>
<rect x="477.5" y="418.5" width="83" height="46" rx="4.5" stroke="#7B61FF" stroke-dasharray="10 5"/>
<g clip-path="url(#clip6_48_509)">
<path fill-rule="evenodd" clip-rule="evenodd" d="M437 451.58L431.34 445.92C428.22 442.8 428.22 437.73 431.34 434.61C432.9 433.05 434.95 432.27 437 432.27C439.05 432.27 441.1 433.05 442.66 434.61C445.78 437.73 445.78 442.8 442.66 445.92L437 451.58ZM437 443C438.657 443 440 441.657 440 440C440 438.343 438.657 437 437 437C435.343 437 434 438.343 434 440C434 441.657 435.343 443 437 443Z" fill="#D4D7E6"/>
</g>
</g>
<defs>
<filter id="filter0_d_48_509" x="0" y="0" width="1376" height="648" filterUnits="userSpaceOnUse" color-interpolation-filters="sRGB">
<feFlood flood-opacity="0" result="BackgroundImageFix"/>
<feColorMatrix in="SourceAlpha" type="matrix" values="0 0 0 0 0 0 0 0 0 0 0 0 0 0 0 0 0 0 127 0" result="hardAlpha"/>
<feOffset dy="8"/>
<feGaussianBlur stdDeviation="20"/>
<feColorMatrix type="matrix" values="0 0 0 0 0 0 0 0 0 0 0 0 0 0 0 0 0 0 0.08 0"/>
<feBlend mode="normal" in2="BackgroundImageFix" result="effect1_dropShadow_48_509"/>
<feBlend mode="normal" in="SourceGraphic" in2="effect1_dropShadow_48_509" result="shape"/>
</filter>
<clipPath id="clip0_48_509">
<rect width="48" height="48" fill="white" transform="translate(376 187)"/>
</clipPath>
<clipPath id="clip1_48_509">
<rect width="48" height="48" fill="white" transform="translate(88 283)"/>
</clipPath>
<clipPath id="clip2_48_509">
<rect width="48" height="48" fill="white" transform="translate(280 283)"/>
</clipPath>
<clipPath id="clip3_48_509">
<rect width="48" height="48" fill="white" transform="translate(280 187)"/>
</clipPath>
<clipPath id="clip4_48_509">
<rect width="24" height="24" fill="white" transform="translate(329 430)"/>
</clipPath>
<clipPath id="clip5_48_509">
<rect width="24" height="24" fill="white" transform="translate(377 430)"/>
</clipPath>
<clipPath id="clip6_48_509">
<rect width="24" height="24" fill="white" transform="translate(425 430)"/>
</clipPath>
</defs>
</svg>
